<svg xmlns="http://www.w3.org/2000/svg" version="1.1" xmlns:xlink="http://www.w3.org/1999/xlink" xmlns:svgjs="http://svgjs.dev/svgjs" width="1024" height="1024"><svg version="1.1" xmlns="http://www.w3.org/2000/svg" xmlns:xlink="http://www.w3.org/1999/xlink" width="1024" height="1024" viewBox="0,0,256,256"><g fill="none" fill-rule="evenodd" stroke="none" stroke-width="1" stroke-linecap="butt" stroke-linejoin="miter" stroke-miterlimit="10" stroke-dasharray="" stroke-dashoffset="0" font-family="none" font-weight="none" font-size="none" text-anchor="none" style="mix-blend-mode: normal"><g transform="translate(-2.71166,-5.53144) scale(0.25,0.25)"><path d="M296.056,226.12c-7.913,1.499 -18.739,7.41 -25.548,13.948c-7.029,6.749 -12.531,16.569 -14.417,25.731c-1.581,7.678 -1.47,48.494 0.13,47.961c0.671,-0.224 3.034,-5.8 5.25,-12.391c2.216,-6.59 5.604,-14.59 7.529,-17.777c4.874,-8.068 14.115,-16.376 24.064,-21.634c8.436,-4.458 8.436,-4.458 161.936,-4.958c84.425,-0.275 154.063,-0.864 154.75,-1.309c0.908,-0.587 1.25,-4.879 1.25,-15.669c0,-14.859 0,-14.859 -155.25,-14.802c-85.388,0.032 -157.25,0.437 -159.694,0.9M642,245.5c0,19.5 0,19.5 21.75,19.469c21.75,-0.03 21.75,-0.03 9.75,-11.75c-11.393,-11.127 -29.673,-27.219 -30.92,-27.219c-0.319,0 -0.58,8.775 -0.58,19.5M720,245.491c0,0.264 1.34,2.656 2.977,5.317c5.709,9.278 12.951,25.754 15.03,34.192c2.075,8.422 2.094,9.715 1.993,140.69c-0.101,132.19 -0.101,132.19 8.515,141.5c4.739,5.12 9.149,9.31 9.801,9.31c1.702,0 2.216,-42.88 2.019,-168.597c-0.104,-66.886 -0.537,-107.242 -1.183,-110.437c-1.743,-8.615 -5.145,-16.325 -11.169,-25.311c-6.43,-9.591 -22.558,-26.314 -25.864,-26.819c-1.165,-0.178 -2.119,-0.108 -2.119,0.155M621.671,297.415c-0.55,1.433 12.928,15.125 22.735,23.097c4.906,3.988 4.906,3.988 31.435,4.3c14.592,0.171 27.571,0.05 28.844,-0.269c2.282,-0.573 2.315,-0.782 2.315,-14.562c0,-13.981 0,-13.981 -42.393,-13.981c-35.628,0 -42.48,0.226 -42.936,1.415M774,602.944c0,0.558 1.123,4.359 2.495,8.447c11.108,33.089 6.738,70.045 -11.583,97.951c-5.558,8.467 -7.785,2.579 24.741,65.421c6.491,12.542 7.145,15.008 5.279,19.916c-2.553,6.713 -23.792,42.083 -27.603,45.966c-3.252,3.313 -5.752,4.73 -11.345,6.429c-9.377,2.848 -14.604,2.22 -30.25,-3.633c-11.26,-4.212 -14.734,-4.826 -14.734,-2.604c0,0.495 2.317,3.9 5.149,7.569c8.612,11.155 26.237,23.034 40.202,27.094c4.339,1.261 8.573,1.574 17.44,1.288c21.416,-0.691 28.196,-5.446 42.036,-29.483c11.233,-19.511 11.232,-19.637 -0.472,-42.165c-4.755,-9.152 -11.035,-20.915 -13.955,-26.14c-2.92,-5.225 -5.991,-11.141 -6.825,-13.146c-1.433,-3.448 -1.394,-3.812 0.705,-6.683c18.655,-25.511 24.381,-39.534 25.443,-62.302c0.884,-18.975 -1.937,-32.28 -10.469,-49.369c-4.209,-8.431 -7.443,-12.961 -21.611,-30.273c-10.149,-12.402 -14.643,-16.786 -14.643,-14.283M578.534,714.25c-0.277,1.237 -0.678,5.947 -0.891,10.466c-0.451,9.587 -0.259,9.621 7.817,1.361c4.961,-5.073 4.961,-5.073 0.542,-9.575c-4.935,-5.029 -6.725,-5.568 -7.468,-2.252M252.665,773.431c-0.725,1.889 6.424,11.643 14.021,19.131c10.511,10.36 20.425,16.729 32.924,21.148c7.89,2.79 7.89,2.79 84.799,3.081c46.034,0.174 77.279,-0.079 77.831,-0.631c0.563,-0.563 -0.082,-4.1 -1.655,-9.079c-1.417,-4.487 -2.865,-10.615 -3.218,-13.619c-0.642,-5.462 -0.642,-5.462 -80.063,-5.462c-50.809,0 -82.012,-0.382 -86.612,-1.061c-12.027,-1.774 -24.571,-6.497 -34.326,-12.924c-2.637,-1.737 -3.223,-1.83 -3.701,-0.584M601.699,799.843c-12.801,11.701 -12.801,11.701 -13.152,18.179c-0.434,7.991 -2.434,12.816 -7.668,18.493c-6.854,7.437 -8.049,7.637 -43.416,7.289c-30.963,-0.304 -30.963,-0.304 -37.704,-3.119c-3.707,-1.548 -7.197,-2.533 -7.755,-2.188c-1.574,0.973 3.861,8.087 13.145,17.204c10.272,10.088 16.208,14.639 23.632,18.119c5.636,2.641 6.071,2.685 30.102,3.009c27.09,0.367 34.865,-0.478 42.463,-4.614c7.077,-3.852 12.493,-10.48 23.362,-28.59c5.322,-8.869 11.811,-18.375 14.42,-21.125c4.743,-5 4.743,-5 27.307,-5.319c16.468,-0.232 22.579,-0.638 22.616,-1.5c0.028,-0.649 -3.009,-7.136 -6.75,-14.413c-6.801,-13.233 -6.801,-13.233 -37.301,-13.179c-30.5,0.053 -30.5,0.053 -43.301,11.754" fill="#f7c5cd"></path><path d="M293.918,192.001c-8.171,1.4 -21.871,6.696 -29.94,11.574c-19.201,11.608 -33.783,29.921 -40.149,50.425c-2.329,7.5 -2.329,7.5 -2.329,238.5c0,231 0,231 2.391,238c2.963,8.678 7.885,18.546 12.273,24.608c4.656,6.431 16.836,19.393 16.836,17.916c0,-0.772 1.194,-0.435 3.25,0.918c9.897,6.51 22.363,11.215 34.442,12.997c4.6,0.679 35.784,1.061 86.547,1.061c79.357,0 79.357,0 80.481,-8.905c0.618,-4.898 2.3,-11.761 3.737,-15.25c1.437,-3.49 2.71,-6.795 2.828,-7.345c0.141,-0.657 -28.74,-1.174 -84.285,-1.509c-83.027,-0.5 -84.597,-0.545 -90.048,-2.626c-9.525,-3.636 -13.766,-6.223 -19.332,-11.789c-6.058,-6.057 -11.886,-16.721 -13.568,-24.827c-1.299,-6.258 -0.929,-395.526 0.38,-400.013c0.676,-2.316 0.544,-2.664 -0.813,-2.143c-1.461,0.56 -1.619,-1.479 -1.619,-20.937c0,-24.245 0.702,-29.114 5.669,-39.322c6.361,-13.073 21.462,-24.538 35.904,-27.259c3.091,-0.583 65.512,-0.948 159.75,-0.935c154.677,0.021 154.677,0.021 154.677,14.882c0,8.173 -0.337,15.067 -0.75,15.321c-0.413,0.253 -0.525,7.902 -0.25,16.996c0.5,16.535 0.5,16.535 3.5,19.687c3.398,3.571 8.5,6.572 8.5,5c0,-0.685 14.124,-1.026 42.5,-1.026c42.5,0 42.5,0 42.5,14c0,7.7 -0.337,14 -0.75,14c-0.413,0 -0.632,48.6 -0.487,108c0.145,59.4 0.103,108 -0.093,108c-0.196,0 -3.015,-0.922 -6.263,-2.05c-11.937,-4.142 -19.338,-5.236 -35.407,-5.233c-16.817,0.003 -26.293,1.783 -41.574,7.81c-22.063,8.703 -45.079,29.934 -56.035,51.69c-3.416,6.783 -3.416,6.783 -82.936,6.783c-84.792,0 -83.464,-0.073 -87.823,4.821c-2.713,3.046 -3.249,10.077 -1.111,14.581c3.256,6.863 0.545,6.595 71.219,7.042c63.76,0.403 63.76,0.403 63.76,10.73c0,10.326 0,10.326 -111.044,10.826c-103.915,0.468 -111.217,0.613 -113.736,2.264c-3.832,2.511 -5.962,6.195 -6.074,10.507c-0.129,4.953 1.951,9.72 5.205,11.93c2.5,1.698 8.928,1.827 114.149,2.299c111.5,0.5 111.5,0.5 111.779,14.368c0.279,13.868 0.279,13.868 -27.119,41.524c-32.343,32.648 -32.832,33.36 -33.459,48.632c-0.651,15.873 2.867,34.797 8.143,43.8c3.344,5.705 13.504,15.976 16.107,16.281c1.127,0.132 5.199,1.388 9.049,2.792c6.921,2.523 7.338,2.551 37,2.555c33.991,0.005 34.861,-0.157 41.727,-7.773c4.945,-5.484 6.895,-10.322 7.32,-18.158c0.351,-6.479 0.351,-6.479 13.376,-18.25c13.025,-11.771 13.025,-11.771 43.301,-11.753c30.276,0.017 30.276,0.017 37.077,13.25c3.741,7.277 6.778,13.751 6.75,14.386c-0.063,1.427 6.501,13.168 8.779,15.704c0.919,1.022 3.776,2.926 6.349,4.231c2.574,1.305 4.974,2.85 5.334,3.433c0.361,0.582 1.457,0.805 2.436,0.494c0.98,-0.311 7.201,1.462 13.825,3.94c15.606,5.838 20.838,6.464 30.21,3.618c5.593,-1.699 8.093,-3.116 11.345,-6.429c3.811,-3.883 25.05,-39.253 27.603,-45.966c1.866,-4.908 1.212,-7.374 -5.279,-19.916c-32.526,-62.842 -30.299,-56.954 -24.741,-65.421c18.321,-27.906 22.691,-64.862 11.583,-97.951c-2.824,-8.412 -3.022,-9.813 -1.245,-8.789c0.688,0.396 0.292,-0.365 -0.879,-1.691c-2.632,-2.981 -14.371,-22.338 -14.371,-23.698c0,-0.545 -0.633,-0.928 -1.406,-0.852c-0.773,0.076 -5.296,-4.051 -10.05,-9.171c-8.645,-9.31 -8.645,-9.31 -8.544,-141.5c0.101,-130.975 0.082,-132.268 -1.993,-140.69c-2.079,-8.438 -9.321,-24.914 -15.03,-34.192c-3.402,-5.528 -3.592,-6.258 -1.414,-5.422c0.86,0.33 -1.053,-1.989 -4.25,-5.154c-3.197,-3.164 -9.863,-9.949 -14.813,-15.078c-13.496,-13.983 -29.151,-23.952 -47.835,-30.461c-9.165,-3.193 -9.165,-3.193 -182.665,-3.335c-95.425,-0.078 -175.562,0.211 -178.082,0.643M642,245.5c0,19.5 0,19.5 21.75,19.469c21.75,-0.03 21.75,-0.03 9.75,-11.75c-11.393,-11.127 -29.673,-27.219 -30.92,-27.219c-0.319,0 -0.58,8.775 -0.58,19.5M306.094,329.288c-1.874,0.667 -4.349,2.483 -5.5,4.035c-2.093,2.823 -2.094,2.873 -2.094,104.5c0,80.875 0.264,102.303 1.292,104.736c2.826,6.689 0.067,6.441 71.708,6.441c57.78,0 64.984,-0.173 67.428,-1.616c5.897,-3.484 5.549,2.913 5.841,-107.122c0.293,-110.491 0.51,-106.067 -5.39,-109.934c-2.619,-1.716 -6.673,-1.841 -66.334,-2.04c-47.69,-0.159 -64.395,0.091 -66.951,1M495.333,340.097c-3.532,1.023 -8.012,5.774 -8.943,9.487c-0.889,3.542 0.35,8.815 2.804,11.936c4.421,5.62 2.22,5.48 85.958,5.48c76.427,0 77.261,-0.022 81.56,-2.102c5.135,-2.486 7.455,-6.372 7.455,-12.488c0,-5.33 -3.054,-10.047 -7.784,-12.023c-2.739,-1.145 -16.817,-1.371 -80.601,-1.297c-43.578,0.051 -78.663,0.49 -80.449,1.007M390.208,422c-17.097,17.05 -31.733,31 -32.524,31c-0.791,0 -5.825,-4.57 -11.186,-10.156c-11.363,-11.838 -9.672,-11.871 -21.423,0.409c-7.42,7.754 -7.42,7.754 12.503,28c10.957,11.136 20.178,20.37 20.49,20.52c0.313,0.15 6.163,-5.469 13,-12.487c6.838,-7.019 21.095,-21.577 31.682,-32.353c19.25,-19.593 19.25,-19.593 19.25,-37.763c0,-9.993 -0.159,-18.17 -0.353,-18.17c-0.194,0 -14.342,13.95 -31.439,31M492.984,408.835c-8.695,4.579 -9.157,18.026 -0.794,23.149c3.263,1.999 4.462,2.025 84.137,1.772c80.827,-0.256 80.827,-0.256 84.362,-4.114c3.361,-3.667 3.515,-4.148 3.112,-9.712c-0.283,-3.918 -1.065,-6.575 -2.362,-8.031c-4.439,-4.98 -3.012,-4.899 -86.672,-4.899c-74.016,0 -78.489,0.1 -81.783,1.835M495.333,483.085c-1.742,0.511 -4.312,2.289 -5.71,3.952c-7.097,8.433 -2.312,20.879 8.632,22.452c2.335,0.336 38.69,0.476 80.79,0.311c71.147,-0.279 76.734,-0.424 79.236,-2.064c4.263,-2.794 6.106,-6.418 6.024,-11.848c-0.081,-5.391 -1.917,-8.932 -6.024,-11.624c-2.508,-1.644 -8.05,-1.776 -81.236,-1.936c-45.977,-0.1 -79.858,0.214 -81.712,0.757M654.5,568.066c-16.301,2.468 -29.591,8.678 -40.929,19.124c-17.328,15.967 -25.708,35.228 -25.804,59.31c-0.054,13.713 2.546,24.449 8.84,36.5c14.958,28.639 40.653,43.591 73.634,42.847c6.587,-0.149 12.127,0.156 12.621,0.694c0.484,0.527 6.762,12.209 13.951,25.959c29.962,57.303 26.892,52.515 36.339,56.686c4.591,2.027 9.313,3.715 10.493,3.75c1.694,0.051 3.32,-2.012 7.75,-9.836c3.083,-5.445 5.605,-10.843 5.605,-11.995c0,-1.152 -7.573,-16.835 -16.829,-34.85c-20.167,-39.253 -21.171,-41.333 -21.171,-43.863c0,-1.086 2.072,-3.982 4.605,-6.434c10.227,-9.9 17.54,-22.64 21.502,-37.458c4.286,-16.032 2.411,-37.952 -4.548,-53.151c-10.15,-22.172 -31.934,-40.077 -55.559,-45.666c-8.446,-1.998 -22.914,-2.765 -30.5,-1.617M652.584,596.516c-16.026,6.116 -24.868,23.676 -20.129,39.976c1.386,4.769 2.838,6.986 7.872,12.017c7.7,7.694 13.371,9.893 23.999,9.305c8.384,-0.464 12.861,-2.378 19.476,-8.326c7.382,-6.637 9.698,-12.127 9.698,-22.988c0,-8.108 -0.294,-9.531 -2.968,-14.359c-3.235,-5.839 -8.771,-11.141 -15.032,-14.394c-5.209,-2.707 -17.343,-3.359 -22.916,-1.231M305.299,600.624c-8.502,4.192 -9.3,16.78 -1.401,22.091c3.32,2.233 3.981,2.285 29,2.27c28.07,-0.016 28.967,-0.177 32.822,-5.897c4.37,-6.486 1.789,-15.724 -5.21,-18.648c-5.242,-2.191 -50.703,-2.039 -55.211,0.184M564,700.645c0,16.644 0,16.644 -30.622,47.049c-30.623,30.405 -30.623,30.405 -29.975,35.606c1.714,13.775 2.896,20.76 3.468,20.493c2.249,-1.048 69.129,-69.834 69.129,-71.099c0,-0.867 0.526,-1.901 1.17,-2.299c0.79,-0.488 0.96,-0.175 0.522,0.964c-1.02,2.658 2.037,0.58 7.768,-5.282c4.961,-5.073 4.961,-5.073 0.542,-9.575c-2.43,-2.476 -5,-4.502 -5.71,-4.502c-0.711,0 -1.292,-0.481 -1.292,-1.07c0,-0.588 -2.099,-4.526 -4.664,-8.75c-2.565,-4.224 -5.709,-10.042 -6.987,-12.93c-1.278,-2.888 -2.554,-5.25 -2.836,-5.25c-0.282,0 -0.513,7.49 -0.513,16.645M576.666,722.352c-0.437,2.119 -0.552,4.096 -0.254,4.393c0.906,0.906 1.758,-2.403 1.393,-5.411c-0.32,-2.64 -0.398,-2.57 -1.139,1.018M561.65,770.85c-21.257,21.263 -38.65,38.929 -38.65,39.259c0,0.913 26.043,2.051 29.75,1.3c3.25,-0.659 3.25,-0.659 3.25,-12.565c0,-10.141 0.245,-12.001 1.649,-12.54c0.908,-0.348 7.77,-0.671 15.25,-0.718c13.601,-0.086 13.601,-0.086 13.795,-14.947c0.107,-8.174 0.482,-15.149 0.832,-15.5c0.351,-0.351 14.438,-0.786 31.306,-0.967c30.668,-0.327 30.668,-0.327 21.403,-2.693c-10.378,-2.65 -25.552,-9.472 -34.202,-15.376c-5.732,-3.913 -5.732,-3.913 -44.383,34.747" fill="#fc5e5e"></path></g></g></svg><style>@media (prefers-color-scheme: light) { :root { filter: none; } }
@media (prefers-color-scheme: dark) { :root { filter: none; } }
</style></svg>